{"title":"Ghost Adventures - S04E10 - Fort Chaffe.[tNe.XViD].avi","uid":5973142,"size":366499132,"categoryP":"video","categoryS":"tv_shows","magnet":"?xt=urn:btih:692c22c603922a2355c67c666835968bf5ef7950&amp;dn=Ghost+Adventures+-+S04E10+-+Fort+Chaffe.%5BtNe.XViD%5D.avi&amp;tr=udp%3A%2F%2Ftracker.openbittorrent.com%3A80&amp;tr=udp%3A%2F%2Fopen.demonii.com%3A1337&amp;tr=udp%3A%2F%2Ftracker.coppersurfer.tk%3A6969&amp;tr=udp%3A%2F%2Fexodus.desync.com%3A6969","seeders":1,"leechers":0,"uploader":"trialNerror","files":1,"time":1290364695,"description":"Format                           : AVI\nFormat/Info                      : Audio Video Interleave\nFile size                        : 350 MiB\nDuration                         : 41mn 59s\nOverall bit rate                 : 1 164 Kbps\nWriting application              : MEncoder SVN-r30881(20100311-gcc4.3.3)\nWriting library                  : VirtualDub build 32839/release\n\nVideo\nID                               : 0\nFormat                           : MPEG-4 Visual\nFormat profile                   : Advanced Simple@L5\nFormat settings, BVOP            : Yes\nFormat settings, QPel            : No\nFormat settings, GMC             : No warppoints\nFormat settings, Matrix          : Default (H.263)\nCodec ID                         : XVID\nCodec ID/Hint                    : XviD\nDuration                         : 41mn 59s\nBit rate                         : 1 040 Kbps\nWidth                            : 624 pixels\nHeight                           : 352 pixels\nDisplay aspect ratio             : 16:9\nFrame rate                       : 29.970 fps\nColor space                      : YUV\nChroma subsampling               : 4:2:0\nBit depth                        : 8 bits\nScan type                        : Progressive\nBits/(Pixel*Frame)               : 0.158\nStream size                      : 312 MiB (89%)\nWriting library                  : XviD 1.2.1 (UTC 2008-12-04)\n\nAudio\nID                               : 1\nFormat                           : MPEG Audio\nFormat version                   : Version 1\nFormat profile                   : Layer 3\nMode                             : Joint stereo\nMode extension                   : MS Stereo\nCodec ID                         : 55\nCodec ID/Hint                    : MP3\nDuration                         : 41mn 59s\nBit rate mode                    : Constant\nBit rate                         : 112 Kbps\nChannel(s)                       : 2 channels\nSampling rate                    : 48.0 KHz\nVideo delay                      : 6ms\nStream size                      : 33.6 MiB (10%)\nAlignment                        : Split accross interleaves\nInterleave, duration             : 33 ms (1.00 video frame)\nInterleave, preload duration     : 500 ms\nWriting library                  : LAME3.98\n\n\n\n\n\n&quot;...We just thought you were Sasquatch, you ugly, hairy, bastard!&quot;  ","torrent":{"xt":"urn:btih:692c22c603922a2355c67c666835968bf5ef7950","amp;dn":"Ghost+Adventures+-+S04E10+-+Fort+Chaffe.%5BtNe.XViD%5D.avi","amp;tr":["udp%3A%2F%2Ftracker.openbittorrent.com%3A80","udp%3A%2F%2Fopen.demonii.com%3A1337","udp%3A%2F%2Ftracker.coppersurfer.tk%3A6969","udp%3A%2F%2Fexodus.desync.com%3A6969"],"infoHash":"692c22c603922a2355c67c666835968bf5ef7950","infoHashBuffer":{"type":"Buffer","data":[105,44,34,198,3,146,42,35,85,198,124,102,104,53,150,139,245,239,121,80]},"announce":[],"urlList":[]}}